<?xml version="1.0" encoding="UTF-8" standalone="no"?>
<!DOCTYPE svg PUBLIC "-//W3C//DTD SVG 1.1//EN"
 "http://www.w3.org/Graphics/SVG/1.1/DTD/svg11.dtd">
<!-- Generated by graphviz version 2.43.0 (0)
 -->
<!-- Title: snakemake_dag Pages: 1 -->
<svg width="366pt" height="260pt"
 viewBox="0.00 0.00 366.00 260.00" xmlns="http://www.w3.org/2000/svg" xmlns:xlink="http://www.w3.org/1999/xlink">
<g id="graph0" class="graph" transform="scale(1 1) rotate(0) translate(4 256)">
<title>snakemake_dag</title>
<polygon fill="white" stroke="transparent" points="-4,4 -4,-256 362,-256 362,4 -4,4"/>
<!-- 1 -->
<g id="node1" class="node">
<title>1</title>
<path fill="none" stroke="#88d856" stroke-width="2" d="M111,-180C111,-180 12,-180 12,-180 6,-180 0,-174 0,-168 0,-168 0,-156 0,-156 0,-150 6,-144 12,-144 12,-144 111,-144 111,-144 117,-144 123,-150 123,-156 123,-156 123,-168 123,-168 123,-174 117,-180 111,-180"/>
<text text-anchor="middle" x="61.5" y="-159.5" font-family="sans" font-size="10.00">plot_read_distribution</text>
</g>
<!-- 2 -->
<g id="node2" class="node">
<title>2</title>
<path fill="none" stroke="#56d88a" stroke-width="2" d="M187.5,-252C187.5,-252 157.5,-252 157.5,-252 151.5,-252 145.5,-246 145.5,-240 145.5,-240 145.5,-228 145.5,-228 145.5,-222 151.5,-216 157.5,-216 157.5,-216 187.5,-216 187.5,-216 193.5,-216 199.5,-222 199.5,-228 199.5,-228 199.5,-240 199.5,-240 199.5,-246 193.5,-252 187.5,-252"/>
<text text-anchor="middle" x="172.5" y="-231.5" font-family="sans" font-size="10.00">guppy</text>
</g>
<!-- 2&#45;&gt;1 -->
<g id="edge1" class="edge">
<title>2&#45;&gt;1</title>
<path fill="none" stroke="grey" stroke-width="2" d="M145.35,-215.88C130.97,-206.81 113.12,-195.55 97.59,-185.76"/>
<polygon fill="grey" stroke="grey" stroke-width="2" points="99.08,-182.56 88.76,-180.19 95.35,-188.48 99.08,-182.56"/>
</g>
<!-- 3 -->
<g id="node3" class="node">
<title>3</title>
<path fill="none" stroke="#56d8c1" stroke-width="2" d="M191.5,-180C191.5,-180 153.5,-180 153.5,-180 147.5,-180 141.5,-174 141.5,-168 141.5,-168 141.5,-156 141.5,-156 141.5,-150 147.5,-144 153.5,-144 153.5,-144 191.5,-144 191.5,-144 197.5,-144 203.5,-150 203.5,-156 203.5,-156 203.5,-168 203.5,-168 203.5,-174 197.5,-180 191.5,-180"/>
<text text-anchor="middle" x="172.5" y="-159.5" font-family="sans" font-size="10.00">minionqc</text>
</g>
<!-- 2&#45;&gt;3 -->
<g id="edge2" class="edge">
<title>2&#45;&gt;3</title>
<path fill="none" stroke="grey" stroke-width="2" d="M172.5,-215.7C172.5,-207.98 172.5,-198.71 172.5,-190.11"/>
<polygon fill="grey" stroke="grey" stroke-width="2" points="176,-190.1 172.5,-180.1 169,-190.1 176,-190.1"/>
</g>
<!-- 5 -->
<g id="node5" class="node">
<title>5</title>
<path fill="none" stroke="#bed856" stroke-width="2" d="M331.5,-180C331.5,-180 233.5,-180 233.5,-180 227.5,-180 221.5,-174 221.5,-168 221.5,-168 221.5,-156 221.5,-156 221.5,-150 227.5,-144 233.5,-144 233.5,-144 331.5,-144 331.5,-144 337.5,-144 343.5,-150 343.5,-156 343.5,-156 343.5,-168 343.5,-168 343.5,-174 337.5,-180 331.5,-180"/>
<text text-anchor="middle" x="282.5" y="-159.5" font-family="sans" font-size="10.00">generate_read_id_list</text>
</g>
<!-- 2&#45;&gt;5 -->
<g id="edge4" class="edge">
<title>2&#45;&gt;5</title>
<path fill="none" stroke="grey" stroke-width="2" d="M199.41,-215.88C213.66,-206.81 231.35,-195.55 246.74,-185.76"/>
<polygon fill="grey" stroke="grey" stroke-width="2" points="248.93,-188.51 255.49,-180.19 245.17,-182.61 248.93,-188.51"/>
</g>
<!-- 4 -->
<g id="node4" class="node">
<title>4</title>
<path fill="none" stroke="#d85656" stroke-width="2" d="M346,-36C346,-36 219,-36 219,-36 213,-36 207,-30 207,-24 207,-24 207,-12 207,-12 207,-6 213,0 219,0 219,0 346,0 346,0 352,0 358,-6 358,-12 358,-12 358,-24 358,-24 358,-30 352,-36 346,-36"/>
<text text-anchor="middle" x="282.5" y="-15.5" font-family="sans" font-size="10.00">compress_processed_reads</text>
</g>
<!-- 6 -->
<g id="node6" class="node">
<title>6</title>
<path fill="none" stroke="#59d856" stroke-width="2" d="M319.5,-108C319.5,-108 245.5,-108 245.5,-108 239.5,-108 233.5,-102 233.5,-96 233.5,-96 233.5,-84 233.5,-84 233.5,-78 239.5,-72 245.5,-72 245.5,-72 319.5,-72 319.5,-72 325.5,-72 331.5,-78 331.5,-84 331.5,-84 331.5,-96 331.5,-96 331.5,-102 325.5,-108 319.5,-108"/>
<text text-anchor="middle" x="282.5" y="-87.5" font-family="sans" font-size="10.00">aggregate_reads</text>
</g>
<!-- 5&#45;&gt;6 -->
<g id="edge5" class="edge">
<title>5&#45;&gt;6</title>
<path fill="none" stroke="grey" stroke-width="2" d="M282.5,-143.7C282.5,-135.98 282.5,-126.71 282.5,-118.11"/>
<polygon fill="grey" stroke="grey" stroke-width="2" points="286,-118.1 282.5,-108.1 279,-118.1 286,-118.1"/>
</g>
<!-- 6&#45;&gt;4 -->
<g id="edge3" class="edge">
<title>6&#45;&gt;4</title>
<path fill="none" stroke="grey" stroke-width="2" d="M282.5,-71.7C282.5,-63.98 282.5,-54.71 282.5,-46.11"/>
<polygon fill="grey" stroke="grey" stroke-width="2" points="286,-46.1 282.5,-36.1 279,-46.1 286,-46.1"/>
</g>
</g>
</svg>
